<svg width="25" height="25" viewBox="0 0 25 25" fill="none" xmlns="http://www.w3.org/2000/svg">
<path d="M11.2842 2.29347L1.90775 9.47202C1.41343 9.85046 1.12354 10.4375 1.12354 11.0601L1.12354 17.0178L1.12354 21.6372C1.12354 22.7418 2.01897 23.6372 3.12354 23.6372L6.86196 23.6372C7.96653 23.6372 8.86196 22.7418 8.86196 21.6372L8.86196 16.6504C8.86196 15.5458 9.75739 14.6504 10.862 14.6504L13.8303 14.6504C14.9349 14.6504 15.8303 15.5458 15.8303 16.6504L15.8303 21.6372C15.8303 22.7418 16.7257 23.6372 17.8303 23.6372L21.8765 23.6372C22.981 23.6372 23.8765 22.7418 23.8765 21.6372L23.8765 11.0601C23.8765 10.4375 23.5866 9.85046 23.0923 9.47202L13.7158 2.29347C12.9983 1.74418 12.0017 1.74418 11.2842 2.29347Z" stroke="#3A4151" stroke-width="2"/>
</svg>
